<svg width="25" height="25" viewBox="0 0 25 25" fill="none" xmlns="http://www.w3.org/2000/svg">
<path d="M23.0687 17.0135C21.4287 17.0135 19.842 16.7468 18.362 16.2668C17.8953 16.1068 17.3753 16.2268 17.0153 16.5868L14.922 19.2135C11.1487 17.4135 7.61534 14.0135 5.73534 10.1068L8.33534 7.8935C8.69534 7.52017 8.802 7.00017 8.65534 6.5335C8.162 5.0535 7.90867 3.46684 7.90867 1.82684C7.90867 1.10684 7.30867 0.506836 6.58867 0.506836H1.97534C1.25534 0.506836 0.388672 0.826836 0.388672 1.82684C0.388672 14.2135 10.6953 24.5068 23.0687 24.5068C24.0153 24.5068 24.3887 23.6668 24.3887 22.9335V18.3335C24.3887 17.6135 23.7887 17.0135 23.0687 17.0135Z" fill="white"/>
</svg>
