<svg width="78" height="71" viewBox="0 0 78 71" fill="none" xmlns="http://www.w3.org/2000/svg">
<path d="M39.6998 34.3284C32.4894 28.3061 23.0395 31.4436 19.2158 33.7651L19.3695 36.9401C20.1478 35.6701 23.8247 34.2943 25.5658 33.7651C24.7977 42.2147 39.2389 39.8079 40.1095 39.8079C40.98 39.8079 39.3413 44.724 41.1849 44.8264C42.6597 44.9084 43.165 41.0028 43.2333 39.0397C48.4772 37.5649 52.0755 38.0838 53.2192 38.5276L51.6829 36.0183C49.1429 35.4857 44.9915 36.2402 43.2333 36.6841C43.3152 30.0882 41.9018 27.2102 41.1849 26.5957L36.9857 28.5417C38.9111 30.5901 39.5974 33.253 39.6998 34.3284Z" fill="black"/>
<path d="M0.0616266 21.8332C-0.716764 31.7065 6.18974 40.1834 9.7403 43.1877C7.231 46.4993 2.38652 55.1811 3.08297 63.4156C3.95354 73.7088 12.5246 73.6688 18.0363 56.8096C21.5185 46.1579 17.9305 24.5439 17.729 18.5558C17.3705 7.90411 20.3407 1.44809 19.1117 0.990772C14.7076 -0.647945 1.03461 9.49161 0.0616266 21.8332Z" fill="black"/>
<path d="M47.5421 21.8332C46.7637 31.7065 53.6702 40.1834 57.2208 43.1877C54.7115 46.4993 49.867 55.1811 50.5634 63.4156C51.434 73.7088 60.0051 73.6688 65.5167 56.8096C68.999 46.1579 65.411 24.5439 65.2095 18.5558C64.851 7.90411 67.8212 1.44809 66.5921 0.990772C62.1881 -0.647945 48.5151 9.49162 47.5421 21.8332Z" fill="black"/>
<path d="M39.4909 37.2994C37.6473 34.278 31.151 32.076 30.8873 34.8414C30.5798 38.0675 37.9035 37.8115 39.4909 37.2994Z" fill="white"/>
<path d="M5.90099 20.0407C4.47867 30.0359 8.99066 38.1178 11.5853 40.9343L14.2483 38.0666C9.41407 22.6216 14.0776 8.94519 16.9624 3.75591C15.9382 1.6051 7.74465 7.08456 5.90099 20.0407Z" fill="white"/>
<path d="M53.3795 20.0407C51.9572 30.0359 56.4692 38.1178 59.0638 40.9343L61.7268 38.0666C56.8926 22.6216 61.5561 8.94519 64.4409 3.75591C63.4167 1.6051 55.2232 7.08456 53.3795 20.0407Z" fill="white"/>
<path d="M14.4532 41.1904C8.46069 46.9259 3.03242 64.6982 9.02495 66.1809C12.9672 67.1563 17.5248 55.6316 14.4532 41.1904Z" fill="white"/>
<path d="M61.9337 41.1904C55.9412 46.9259 50.5129 64.6982 56.5054 66.1809C60.4476 67.1563 65.0053 55.6316 61.9337 41.1904Z" fill="white"/>
<path d="M77.3876 25.981C76.0357 24.2194 69.5184 29.6169 66.4287 32.5359L66.8384 35.7621C73.2908 28.5927 79.0776 28.183 77.3876 25.981Z" fill="black"/>
</svg>
