<svg width="229" height="55" viewBox="0 0 229 55" fill="none" xmlns="http://www.w3.org/2000/svg">
<path d="M228.5 48.9857L228.5 44.4795L226.4 48.3414L224.299 44.4795L224.299 48.9857M219.482 44.4775L222.284 44.4775M220.882 44.4775L220.882 48.9838" stroke="white" stroke-miterlimit="10" stroke-linecap="round" stroke-linejoin="round"/>
<path d="M164.023 49.1362V21.3357H172.44V23.8903C173.091 22.7883 175.445 20.5843 179.654 20.5843C183.862 20.5843 186.317 22.9887 187.018 24.1908C189.273 20.8848 193.08 20.5342 195.285 20.5843C203.25 20.5843 205.655 27.7974 205.655 31.8548V49.1362H197.239V32.3056C197.239 31.2537 196.697 28.2482 193.331 28.2482C189.964 28.2482 188.972 31.2537 188.972 32.9067V49.1362H180.556V32.3056C180.556 30.352 179.744 28.2482 176.498 28.2482C173.251 28.2482 172.44 31.2537 172.44 32.9067V49.1362H164.023Z" fill="white"/>
<path d="M28.0043 27.4972V13.9727H0.5V41.1721H14.3273V27.4972H28.0043Z" fill="white"/>
<rect x="14.1768" y="41.1719" width="13.8273" height="13.8251" fill="white"/>
<rect x="41.5308" y="41.1719" width="13.8273" height="13.8251" fill="white"/>
<path fill-rule="evenodd" clip-rule="evenodd" d="M28.0044 -0.00292969H55.3584V13.8222H68.8851L68.8851 27.3468L68.8851 27.6473L68.8851 41.1719H55.3584V27.6473H41.5311V13.8222H28.0044V-0.00292969Z" fill="white"/>
<path d="M91.5799 25.2433L84.3657 10.3662H74.1455L87.2213 34.1094V48.9864H96.0888V34.1094L109.165 10.3662H98.9445L91.5799 25.2433Z" fill="white"/>
<path d="M132.911 35.1613C132.911 43.2947 126.317 49.8881 118.182 49.8881C110.048 49.8881 103.453 43.2947 103.453 35.1613C103.453 27.028 110.048 20.4346 118.182 20.4346C126.317 20.4346 132.911 27.028 132.911 35.1613ZM111.618 35.1613C111.618 38.7862 114.557 41.7248 118.182 41.7248C121.808 41.7248 124.495 38.7862 124.495 35.1613C124.495 31.5365 121.808 28.5979 118.182 28.5979C114.557 28.5979 111.618 31.5365 111.618 35.1613Z" fill="white"/>
<path d="M162.67 35.1613C162.67 43.2947 156.076 49.8881 147.941 49.8881C139.806 49.8881 133.212 43.2947 133.212 35.1613C133.212 27.028 139.806 20.4346 147.941 20.4346C156.076 20.4346 162.67 27.028 162.67 35.1613ZM141.377 35.1613C141.377 38.7862 144.316 41.7248 147.941 41.7248C151.566 41.7248 154.253 38.7862 154.253 35.1613C154.253 31.5365 151.566 28.5979 147.941 28.5979C144.316 28.5979 141.377 31.5365 141.377 35.1613Z" fill="white"/>
<rect x="208.36" y="21.3359" width="8.41661" height="27.6503" fill="white"/>
<ellipse cx="212.719" cy="13.9727" rx="4.95979" ry="4.95902" fill="white"/>
</svg>
