<svg xmlns="http://www.w3.org/2000/svg" width="69" height="221" viewBox="0 0 69 221" fill="none">
<g clip-path="url(#clip0_2402_69)">
<g style="mix-blend-mode:multiply" opacity="0.3">
<path d="M41.9424 220.175C55.5278 220.175 66.5409 217.361 66.5409 213.89C66.5409 210.419 55.5278 207.605 41.9424 207.605C28.3569 207.605 17.3438 210.419 17.3438 213.89C17.3438 217.361 28.3569 220.175 41.9424 220.175Z" fill="#BDCFD5"/>
</g>
<g style="mix-blend-mode:multiply" opacity="0.4">
<path d="M61.1872 111.193H51.4121L51.2088 109.295C52.9742 99.316 55.9614 89.5921 60.1029 80.3428C63.9147 72.4482 68.6921 64.5197 68.7598 55.7611C68.7598 48.595 65.6765 41.5813 66.5575 34.466L55.0205 54.6599C55.9184 45.2406 55.8676 31.6707 55.8676 19.7441C50.6328 27.8251 45.3471 35.9907 42.0944 45.0543C41.5862 46.4434 41.1118 48.002 40.6205 49.6284C40.6205 48.2618 40.6714 46.8896 40.7731 45.5117C41.078 40.3108 41.6539 35.1098 42.1791 29.9088C45.2455 29.9088 47.8036 27.8081 46.1095 22.9291C45.0083 19.7441 48.7523 18.8293 47.397 14.7973C47.1429 14.035 45.5674 12.8322 45.398 12.0359C44.2968 6.8011 47.8205 1.71875 44.7033 0.177101C42.6026 -0.70384 40.6884 1.87123 40.3495 4.15829C40.0107 6.44535 40.1631 9.08814 38.4013 10.5281C37.7258 10.9311 37.0855 11.3902 36.4869 11.9004C34.9791 13.5945 36.4869 16.2373 36.3683 18.5075C36.2635 19.4772 36.0299 20.4286 35.6738 21.3366C35.1082 22.7293 35.083 24.2829 35.6032 25.6931C36.1234 27.1033 37.1515 28.2684 38.4859 28.9601C37.6652 35.5584 37.2409 42.2 37.2154 48.8491C33.2579 33.4056 26.6176 18.7775 17.5974 5.63216C16.2083 20.7437 16.6318 25.1315 17.75 33.8562C18.4445 39.3282 18.9358 44.4444 19.4441 49.2726C11.6342 38.0068 4.89161 28.8246 4.09537 29.0787C1.85914 47.5616 4.09537 57.506 14.2601 72.7023C17.2587 77.1917 32.3363 87.5427 35.9617 102.061C36.3853 103.671 36.9104 107.144 37.5033 111.26H30.7269C30.4332 111.26 30.1426 111.319 29.8732 111.436C29.6037 111.553 29.3613 111.724 29.161 111.939C28.9606 112.153 28.8067 112.407 28.7089 112.684C28.611 112.961 28.5714 113.255 28.5924 113.547L35.6907 209.18C35.7336 209.784 36.0041 210.349 36.4475 210.761C36.8909 211.173 37.4741 211.401 38.0794 211.4H53.7839C54.3909 211.402 54.9761 211.174 55.4223 210.762C55.8684 210.351 56.1425 209.786 56.1895 209.18L63.2709 113.547C63.3014 113.253 63.2706 112.956 63.1803 112.675C63.09 112.393 62.9422 112.134 62.7463 111.912C62.5504 111.691 62.3107 111.513 62.0423 111.389C61.7739 111.265 61.4827 111.198 61.1872 111.193Z" fill="#C1B5AA"/>
</g>
<path d="M38.7044 46.816C41.9571 37.7525 47.175 29.5868 52.4775 21.5059C52.4775 36.2277 52.4775 53.44 50.7834 62.3002C48.3947 74.6842 44.6338 89.7957 37.0102 99.9435C29.5053 87.0004 33.8592 60.2165 38.7044 46.816Z" fill="#8A9636"/>
<path d="M40.5533 92.7101C39.9434 86.1369 39.3166 79.5638 38.317 73.0414C34.4375 47.5111 28.5927 28.7063 14.2097 7.25879C12.8205 22.3703 13.2441 26.7581 14.3622 35.4828C17.1914 57.6757 16.4968 74.1426 33.8276 88.2885C35.696 89.5285 37.2737 91.1582 38.4525 93.0658C40.9259 98.1482 38.8761 105.399 39.757 110.719C43.9076 107.093 41.1632 98.1821 40.5533 92.7101Z" fill="#66741F"/>
<path d="M37.7754 13.8658C34.1331 32.3148 32.1678 52.8306 35.6069 71.3812C39.4017 91.7106 46.3307 110.346 43.7387 131.404C43.5016 133.301 46.6357 133.691 47.127 131.861C51.1929 114.158 44.9246 96.0645 40.8587 78.9708C38.162 68.6089 37.0201 57.9037 37.4705 47.2061C38.1143 36.1774 39.9947 25.1826 39.927 14.1369C39.927 12.9849 38.0973 12.663 37.8601 13.8658H37.7754Z" fill="#66741F"/>
<path d="M38.8411 85.2389C29.5234 69.9919 2.43447 30.197 0.791174 30.7053C-1.44506 49.1881 0.791174 59.1326 10.9559 74.3288C13.9545 78.8182 29.0321 89.1693 32.6575 103.688C33.9789 108.889 36.6387 132.894 38.0787 138.129C46.2613 124.085 44.6011 94.6921 38.8411 85.2389Z" fill="#8A9636"/>
<path d="M48.7868 61.3009L63.2376 36.1602C62.3566 43.2755 65.5078 50.2891 65.44 57.4552C65.44 66.2138 60.5948 74.1423 56.783 82.0369C52.0225 91.8797 46.6184 110.718 46.3642 124.593C39.1812 108.821 40.2823 76.1413 48.7868 61.3009Z" fill="#66741F"/>
<path d="M57.7995 112.887H27.3901C27.0964 112.886 26.8058 112.946 26.5364 113.063C26.2669 113.179 26.0244 113.35 25.8241 113.565C25.6237 113.779 25.4698 114.033 25.372 114.31C25.2741 114.587 25.2345 114.881 25.2555 115.174L32.3538 210.807C32.3967 211.41 32.6672 211.975 33.1106 212.387C33.554 212.799 34.1373 213.028 34.7426 213.026H50.447C51.054 213.028 51.6392 212.8 52.0854 212.389C52.5315 211.977 52.8056 211.412 52.8526 210.807L59.9341 115.174C59.9551 114.881 59.9154 114.587 59.8176 114.31C59.7197 114.033 59.5657 113.779 59.3654 113.565C59.165 113.35 58.9226 113.179 58.6532 113.063C58.3837 112.946 58.0931 112.886 57.7995 112.887Z" fill="#7B6357"/>
<path d="M33.2176 122.95C38.8927 123.853 44.6702 123.91 50.362 123.119C50.6047 123.119 50.8374 123.023 51.0089 122.851C51.1805 122.68 51.2768 122.447 51.2768 122.204C51.2768 121.962 51.1805 121.729 51.0089 121.557C50.8374 121.386 50.6047 121.289 50.362 121.289C44.6703 120.498 38.8926 120.555 33.2176 121.459C33.0579 121.508 32.9179 121.606 32.8186 121.74C32.7192 121.875 32.6655 122.037 32.6655 122.204C32.6655 122.371 32.7192 122.534 32.8186 122.668C32.9179 122.802 33.0579 122.901 33.2176 122.95Z" fill="#6D564D"/>
<path d="M35.1145 134.91C40.3493 134.724 45.8552 135.351 51.0223 134.554C51.2186 134.5 51.3916 134.383 51.515 134.221C51.6383 134.058 51.705 133.86 51.705 133.657C51.705 133.453 51.6383 133.255 51.515 133.093C51.3916 132.93 51.2186 132.813 51.0223 132.759C45.9399 131.962 40.3493 132.589 35.1145 132.403C34.782 132.403 34.4631 132.535 34.228 132.77C33.9929 133.005 33.8608 133.324 33.8608 133.657C33.8608 133.989 33.9929 134.308 34.228 134.543C34.4631 134.778 34.782 134.91 35.1145 134.91Z" fill="#6D564D"/>
<path d="M35.8434 148.463C40.9887 149.436 46.2572 149.573 51.4462 148.87C51.6303 148.817 51.7922 148.706 51.9075 148.553C52.0228 148.401 52.0851 148.214 52.0851 148.023C52.0851 147.831 52.0228 147.645 51.9075 147.492C51.7922 147.339 51.6303 147.228 51.4462 147.176C46.2572 146.472 40.9887 146.61 35.8434 147.582C35.7472 147.609 35.6626 147.667 35.6022 147.746C35.5419 147.826 35.5093 147.923 35.5093 148.023C35.5093 148.123 35.5419 148.22 35.6022 148.299C35.6626 148.379 35.7472 148.436 35.8434 148.463Z" fill="#6D564D"/>
<path d="M35.9623 161.321L41.6714 161.694C43.3524 161.993 45.0729 161.993 46.7538 161.694C46.9492 161.629 47.119 161.504 47.2394 161.336C47.3597 161.169 47.4245 160.968 47.4245 160.762C47.4245 160.556 47.3597 160.356 47.2394 160.188C47.119 160.021 46.9492 159.896 46.7538 159.831C45.0729 159.532 43.3524 159.532 41.6714 159.831L35.9623 160.203C35.8095 160.203 35.663 160.264 35.555 160.372C35.447 160.48 35.3862 160.627 35.3862 160.779C35.3862 160.932 35.447 161.079 35.555 161.187C35.663 161.295 35.8095 161.355 35.9623 161.355V161.321Z" fill="#6D564D"/>
<path d="M37.6562 175.569C41.5001 176.24 45.4223 176.337 49.2948 175.857C49.4545 175.808 49.5944 175.71 49.6938 175.575C49.7932 175.441 49.8468 175.279 49.8468 175.112C49.8468 174.945 49.7932 174.782 49.6938 174.648C49.5944 174.514 49.4545 174.415 49.2948 174.366C45.4223 173.886 41.5001 173.983 37.6562 174.654C37.5349 174.654 37.4185 174.703 37.3327 174.788C37.247 174.874 37.1987 174.99 37.1987 175.112C37.1987 175.233 37.247 175.349 37.3327 175.435C37.4185 175.521 37.5349 175.569 37.6562 175.569Z" fill="#6D564D"/>
<path d="M37.9263 189.698C39.788 190.077 41.6852 190.253 43.5847 190.223C45.499 190.479 47.4435 190.393 49.3278 189.969C49.5119 189.917 49.6738 189.806 49.789 189.653C49.9043 189.5 49.9667 189.314 49.9667 189.122C49.9667 188.931 49.9043 188.745 49.789 188.592C49.6738 188.439 49.5119 188.328 49.3278 188.275C47.4435 187.852 45.499 187.765 43.5847 188.021C41.6852 187.992 39.788 188.168 37.9263 188.546C37.7973 188.578 37.6827 188.652 37.6007 188.756C37.5187 188.86 37.4741 188.989 37.4741 189.122C37.4741 189.255 37.5187 189.384 37.6007 189.488C37.6827 189.593 37.7973 189.667 37.9263 189.698Z" fill="#6D564D"/>
<path d="M32.2848 22.9628C32.641 22.0548 32.8745 21.1033 32.9793 20.1336C33.1318 17.8635 31.5902 15.2207 33.0979 13.5265C33.6965 13.0163 34.3369 12.5573 35.0123 12.1543C36.7064 10.7143 36.7064 8.05453 36.9606 5.78441C37.2147 3.5143 39.2136 0.922285 41.3144 1.80323C44.4315 3.41264 40.9078 8.49499 42.009 13.6621C42.1784 14.4583 43.7031 15.6611 44.008 16.4235C45.3633 20.4555 41.6193 21.3703 42.7205 24.5552C46.5492 35.5331 28.9813 32.6362 32.2848 22.9628Z" fill="#E29D36"/>
<path d="M38.5019 203.607C40.7932 204.083 43.1511 204.146 45.4647 203.793C45.6123 203.747 45.7413 203.654 45.8328 203.529C45.9243 203.404 45.9736 203.254 45.9736 203.099C45.9736 202.944 45.9243 202.793 45.8328 202.668C45.7413 202.543 45.6123 202.451 45.4647 202.404C43.1511 202.052 40.7932 202.115 38.5019 202.591C38.3671 202.591 38.2378 202.644 38.1424 202.739C38.0471 202.835 37.9937 202.964 37.9937 203.099C37.9937 203.234 38.0471 203.363 38.1424 203.458C38.2378 203.553 38.3671 203.607 38.5019 203.607Z" fill="#6D564D"/>
</g>
<defs>
<clipPath id="clip0_2402_69">
<rect width="68.78" height="220.18" fill="white"/>
</clipPath>
</defs>
</svg>