<svg xmlns="http://www.w3.org/2000/svg" width="134" height="255" viewBox="0 0 134 255" fill="none">
<g clip-path="url(#clip0_2401_68)">
<g style="mix-blend-mode:multiply" opacity="0.3">
<path d="M63.9022 254.879C88.0323 254.879 107.594 250.798 107.594 245.765C107.594 240.731 88.0323 236.65 63.9022 236.65C39.7722 236.65 20.2109 240.731 20.2109 245.765C20.2109 250.798 39.7722 254.879 63.9022 254.879Z" fill="#BDCFD5"/>
</g>
<g style="mix-blend-mode:multiply" opacity="0.4">
<path d="M124.23 135.342C123.383 128.752 123.942 121.399 119.775 116.215C115.353 110.71 106.933 109.913 100.36 112.455C93.7868 114.996 88.6197 120.163 83.7068 125.228C78.4889 130.717 73.0677 136.409 70.0183 143.372L69.8658 143.779C69.6795 141.102 69.4254 138.442 69.0866 135.783C72.0635 130.265 75.4026 124.951 79.0818 119.875C91.7144 100.802 99.8263 79.0964 102.799 56.4131C91.432 74.9976 78.1501 92.5487 69.3407 112.37C68.3242 114.657 67.3755 116.978 66.5115 119.35C65.4442 113.59 64.2922 107.83 63.3096 102.053C63.3234 99.333 62.906 96.6284 62.0729 94.0395L61.9204 93.0399C64.5264 85.7166 68.951 79.1758 74.7788 74.0319C77.6927 71.5247 80.8946 69.3901 83.7407 66.815C89.1684 61.7341 93.0241 55.2023 94.8499 47.9952C96.6757 40.7881 96.3949 33.2084 94.0409 26.1562L85.5703 43.487C83.896 47.2781 81.8111 50.8741 79.3529 54.2108C76.5746 57.599 73.0338 60.4112 70.0353 63.647C65.7122 68.4197 62.6492 74.1963 61.1242 80.4526C61.3275 71.982 62.6997 63.6978 63.1402 55.3119C71.272 37.7439 87.688 23.8183 91.3642 4.75945C87.2136 10.4009 79.9289 12.9082 75.3379 18.2108C72.6978 21.6213 70.6897 25.477 69.4084 29.5952C67.7143 34.2371 65.0207 39.9124 63.1063 45.6724V44.7915C61.9933 29.8124 59.3074 14.992 55.0931 0.575006C54.8221 -0.272053 53.399 -0.170424 53.5007 0.795223C54.2291 15.5849 59.4301 29.9849 60.4127 44.8423C61.2936 58.3952 56.7195 71.7618 56.6009 85.5011C40.4051 67.7129 46.0635 47.7731 30.4946 28.782C18.6357 19.6507 14.3835 13.6366 3.38867 14.8056C14.3071 23.9466 23.5435 34.926 30.6809 47.248C32.0396 49.3687 33.0412 51.6979 33.6456 54.143C33.9542 56.7795 34.0505 59.4365 33.9336 62.0884C34.5435 81.6385 53.8395 95.7844 59.5826 113.81L59.8028 113.505C60.8531 119.333 61.9882 125.143 62.9708 130.971C62.5811 132.547 62.2254 134.105 61.9035 135.681C60.6697 132.783 59.2785 129.956 57.736 127.21C47.063 108.338 34.6451 90.1938 31.4771 68.831C30.8503 68.3058 30.0371 69.2376 29.783 69.9999C25.6646 81.8509 25.9896 94.7942 30.6978 106.423C34.3571 115.402 40.5068 123.161 47.1477 130.226C49.1734 132.19 50.9693 134.378 52.5011 136.748C55.8894 142.576 60.0061 148.895 60.3618 155.638H54.263C47.9727 155.638 41.94 158.136 37.4921 162.584C33.0442 167.032 30.5454 173.065 30.5454 179.355L43.3021 240.462C43.507 241.558 44.0877 242.549 44.9442 243.263C45.8008 243.977 46.8795 244.371 47.9948 244.375H85.2654C86.3663 244.375 87.4337 243.997 88.2883 243.302C89.1428 242.608 89.7324 241.641 89.9581 240.564L102.715 179.457C102.715 173.167 100.216 167.134 95.7681 162.686C91.3201 158.238 85.2875 155.739 78.9972 155.739H75.8122C75.8122 154.74 75.6936 153.74 75.592 152.741C75.1116 150.126 75.2041 147.438 75.863 144.863C76.9811 141.729 79.895 139.645 82.6395 137.748L96.5482 128.125C98.1023 126.876 99.9129 125.985 101.851 125.516C105.408 124.957 108.864 127.329 110.864 130.311C112.63 133.451 114.034 136.781 115.048 140.238C118.063 148.2 124.637 156.01 133.158 155.993C128.327 150.069 125.236 142.92 124.23 135.342Z" fill="#C1B5AA"/>
</g>
<path d="M66.6302 145.066C69.6118 138.036 74.9822 132.344 80.3017 126.855C85.2147 121.772 90.3648 116.69 96.9549 114.081C103.545 111.472 111.948 112.387 116.369 117.842C120.537 123.026 119.978 130.378 120.825 136.969C121.813 144.547 124.886 151.702 129.702 157.637C121.232 157.637 114.608 149.844 111.592 141.882C110.578 138.425 109.174 135.094 107.408 131.954C105.409 128.972 101.953 126.601 98.3949 127.16C96.4765 127.653 94.6897 128.561 93.1601 129.819L79.2514 139.357C76.5069 141.255 73.593 143.338 72.4749 146.473C71.816 149.048 71.7235 151.736 72.2038 154.35C72.9822 162.607 72.2823 170.937 70.137 178.949C58.8034 174.121 63.2419 153.385 66.6302 145.066Z" fill="#8A9636"/>
<path d="M63.3611 143.711C65.6989 135.562 71.0693 128.701 75.762 121.687C88.3946 102.614 96.5065 80.9088 99.4797 58.2256C88.0444 76.6915 74.7625 94.2426 65.9531 114.064C57.1437 133.885 53.1625 157.196 61.2434 177.373C60.21 167.971 60.7521 152.808 63.3611 143.711Z" fill="#8A9636"/>
<path d="M54.3134 128.786C43.6743 110.032 31.2564 91.8882 28.0884 70.5254C27.4616 70.0002 26.6484 70.932 26.3943 71.6943C22.2758 83.5453 22.6009 96.4886 27.3091 108.118C30.9684 117.097 37.1181 124.856 43.759 131.92C45.7846 133.885 47.5806 136.073 49.1124 138.443C52.5007 144.27 56.6174 150.589 56.9731 157.332C57.312 163.6 62.8178 172.969 67.5444 177.339C67.1717 167.649 64.1392 146.134 54.3134 128.786Z" fill="#8A9636"/>
<path d="M63.7841 175.696C71.9667 147.404 61.3615 119.79 58.1597 91.6C56.4655 76.3529 61.0058 61.6649 59.7183 46.5195C58.6052 31.5404 55.9194 16.72 51.7051 2.30302C51.434 1.45596 50.011 1.55762 50.1126 2.52327C50.8411 17.3129 56.042 31.7129 57.0246 46.5703C57.9733 61.0889 52.6368 75.3703 53.2637 90.1938C54.4496 118.536 66.3253 146.337 60.4806 174.9C60.3593 175.349 60.4214 175.828 60.6534 176.232C60.8853 176.635 61.268 176.93 61.7173 177.051C62.1666 177.173 62.6457 177.11 63.0492 176.878C63.4527 176.647 63.7475 176.264 63.8688 175.815L63.7841 175.696Z" fill="#8A9636"/>
<path d="M66.6292 65.443C69.6278 62.2072 73.1685 59.4627 75.9468 56.0067C78.405 52.6701 80.4899 49.0741 82.1642 45.283L90.6348 27.9521C92.9888 35.0044 93.2696 42.5841 91.4438 49.7912C89.618 56.9983 85.7623 63.5301 80.3346 68.611C77.4885 71.186 74.2866 73.3206 71.3727 75.8279C62.7158 83.299 57.8198 93.5992 55.7699 104.628C55.4141 90.5837 56.7864 76.1159 66.6292 65.443Z" fill="#8A9636"/>
<path d="M54.5337 88.5503C36.6946 70.4063 43.0984 49.9244 27.1059 30.4251C15.2471 21.2938 10.9948 15.2797 0 16.4487C10.9184 25.5897 20.1549 36.5691 27.2922 48.891C28.651 51.0118 29.6525 53.341 30.2569 55.7861C30.5655 58.4226 30.6618 61.0796 30.5449 63.7315C31.1548 83.2816 50.4508 97.4275 56.1939 115.453C62.2588 107.931 60.4292 94.5475 54.5337 88.5503Z" fill="#8A9636"/>
<path d="M66.0713 31.323C67.3525 27.2048 69.3606 23.3492 72.0007 19.9386C76.5917 14.636 83.8595 12.1287 88.027 6.4873C83.995 27.4097 64.5974 42.0638 57.6684 62.2407C56.1776 52.6012 62.8016 40.0308 66.0713 31.323Z" fill="#8A9636"/>
<path d="M75.608 157.366H50.8739C44.5836 157.366 38.5509 159.865 34.103 164.312C29.6551 168.76 27.1563 174.793 27.1562 181.083L39.913 242.19C40.1248 243.28 40.7085 244.263 41.5644 244.97C42.4203 245.678 43.4952 246.067 44.6057 246.07H81.8762C82.9772 246.07 84.0446 245.691 84.8991 244.997C85.7537 244.303 86.3433 243.336 86.5689 242.258L99.3257 181.151C99.3346 178.031 98.7277 174.939 97.5397 172.054C96.3518 169.169 94.6062 166.546 92.4029 164.336C90.1996 162.127 87.582 160.374 84.7 159.178C81.8181 157.981 78.7284 157.366 75.608 157.366Z" fill="#7B6357"/>
<path d="M41.2179 166.311C56.1261 166.666 71.712 167.767 86.5355 166.311C86.6838 166.311 86.826 166.252 86.9308 166.147C87.0357 166.042 87.0946 165.9 87.0946 165.751C87.0946 165.603 87.0357 165.461 86.9308 165.356C86.826 165.251 86.6838 165.192 86.5355 165.192C71.695 163.803 56.0414 164.904 41.2179 165.192C41.0876 165.192 40.9626 165.244 40.8705 165.336C40.7783 165.428 40.7266 165.553 40.7266 165.684C40.7266 165.814 40.7783 165.939 40.8705 166.031C40.9626 166.123 41.0876 166.175 41.2179 166.175V166.311Z" fill="#6D564D"/>
<path d="M36.5576 190.807C54.4983 191.367 72.8456 192.231 90.7694 190.926C90.9042 190.926 91.0334 190.873 91.1288 190.777C91.2241 190.682 91.2776 190.553 91.2776 190.418C91.2776 190.283 91.2241 190.154 91.1288 190.058C91.0334 189.963 90.9042 189.91 90.7694 189.91C72.8456 188.605 54.4983 189.469 36.5576 190.028C36.4543 190.028 36.3552 190.069 36.2821 190.142C36.209 190.215 36.168 190.314 36.168 190.418C36.168 190.521 36.209 190.62 36.2821 190.693C36.3552 190.766 36.4543 190.807 36.5576 190.807Z" fill="#6D564D"/>
<path d="M42.9131 203.531C55.3988 203.852 68.1385 204.479 80.6072 203.531C80.7375 203.531 80.8625 203.479 80.9546 203.387C81.0468 203.294 81.0985 203.17 81.0985 203.039C81.0985 202.909 81.0468 202.784 80.9546 202.692C80.8625 202.6 80.7375 202.548 80.6072 202.548C68.1385 201.65 55.4157 202.277 42.9131 202.548C42.7963 202.548 42.6843 202.594 42.6017 202.677C42.5191 202.76 42.4727 202.872 42.4727 202.988C42.4727 203.105 42.5191 203.217 42.6017 203.3C42.6843 203.382 42.7963 203.429 42.9131 203.429V203.531Z" fill="#6D564D"/>
<path d="M43.7595 215.847C56.7325 216.736 69.7512 216.736 82.7242 215.847C82.8276 215.847 82.9267 215.806 82.9997 215.733C83.0728 215.66 83.1139 215.56 83.1139 215.457C83.1139 215.354 83.0728 215.255 82.9997 215.182C82.9267 215.108 82.8276 215.067 82.7242 215.067C69.7512 214.178 56.7325 214.178 43.7595 215.067C43.6337 215.067 43.513 215.117 43.4241 215.206C43.3351 215.295 43.2852 215.416 43.2852 215.542C43.2852 215.668 43.3351 215.788 43.4241 215.877C43.513 215.966 43.6337 216.016 43.7595 216.016V215.847Z" fill="#6D564D"/>
<path d="M45.8772 226.689C58.1464 227.423 70.4456 227.513 82.7243 226.96C82.877 226.96 83.0235 226.899 83.1316 226.791C83.2396 226.683 83.3003 226.537 83.3003 226.384C83.3003 226.231 83.2396 226.085 83.1316 225.977C83.0235 225.869 82.877 225.808 82.7243 225.808C70.4456 225.255 58.1464 225.345 45.8772 226.079C45.7963 226.079 45.7188 226.111 45.6616 226.168C45.6044 226.226 45.5723 226.303 45.5723 226.384C45.5723 226.465 45.6044 226.542 45.6616 226.6C45.7188 226.657 45.7963 226.689 45.8772 226.689Z" fill="#6D564D"/>
<path d="M45.4547 237.769C55.8737 238.853 66.377 238.853 76.7959 237.769C76.9172 237.769 77.0336 237.72 77.1194 237.635C77.2051 237.549 77.2533 237.432 77.2533 237.311C77.2533 237.19 77.2051 237.073 77.1194 236.988C77.0336 236.902 76.9172 236.854 76.7959 236.854C66.377 235.769 55.8737 235.769 45.4547 236.854C45.3559 236.854 45.2611 236.893 45.1912 236.963C45.1213 237.033 45.082 237.128 45.082 237.226C45.082 237.325 45.1213 237.42 45.1912 237.49C45.2611 237.56 45.3559 237.599 45.4547 237.599V237.769Z" fill="#6D564D"/>
<path d="M35.2886 177.898C44.5385 178.339 53.7715 178.373 63.0383 178.39C72.3051 178.407 81.6736 179.304 90.771 178.186C90.9058 178.186 91.0351 178.133 91.1304 178.037C91.2257 177.942 91.2792 177.813 91.2792 177.678C91.2792 177.543 91.2257 177.414 91.1304 177.319C91.0351 177.223 90.9058 177.17 90.771 177.17C81.7244 176.052 72.1357 176.933 63.0383 176.967C53.9409 177 44.5385 176.967 35.2886 177.475C35.2426 177.488 35.2021 177.516 35.1733 177.554C35.1445 177.592 35.1289 177.639 35.1289 177.687C35.1289 177.734 35.1445 177.781 35.1733 177.819C35.2021 177.857 35.2426 177.885 35.2886 177.898Z" fill="#6D564D"/>
</g>
<defs>
<clipPath id="clip0_2401_68">
<rect width="133.16" height="254.88" fill="white"/>
</clipPath>
</defs>
</svg>