<svg width="583" height="87" viewBox="0 0 583 87" fill="none" xmlns="http://www.w3.org/2000/svg">
<g clip-path="url(#clip0_4412_106)">
<g style="mix-blend-mode:multiply" opacity="0.3">
<path d="M583.2 87.4164L576.661 81.7919L573.222 78.8272L552.842 61.2593L550.741 59.4635L535.765 46.5712L530.496 42.031L518.502 31.6969L516.435 29.9181L499.07 14.959L495.784 12.1298L485.636 3.38818H105.798L100.055 8.33498L92.3295 15.0098L75.0834 29.9181L73.0166 31.6969L61.0561 42.014L55.7874 46.5712L39.3884 60.7171L38.7446 61.2762L21.058 76.5571L14.9931 81.7919L8.4707 87.4164H583.2Z" fill="#C1B5AA"/>
</g>
<path d="M574.729 84.0282H0L97.3271 0H477.165L574.729 84.0282Z" fill="white"/>
<path d="M94.9552 10.3847C99.3589 10.2785 103.753 10.8499 107.983 12.0789C117.451 14.6539 127.434 14.6539 136.902 12.0789C145.425 9.75189 154.417 9.75189 162.94 12.0789C172.402 14.6541 182.38 14.6541 191.842 12.0789C200.371 9.75211 209.368 9.75211 217.897 12.0789C227.365 14.6539 237.348 14.6539 246.816 12.0789C255.345 9.75211 264.342 9.75211 272.871 12.0789C282.333 14.6541 292.311 14.6541 301.773 12.0789C310.302 9.75211 319.299 9.75211 327.829 12.0789C337.296 14.6539 347.28 14.6539 356.747 12.0789C365.277 9.75211 374.273 9.75211 382.803 12.0789C392.27 14.6539 402.254 14.6539 411.721 12.0789C420.251 9.75211 429.247 9.75211 437.777 12.0789C447.239 14.6541 457.217 14.6541 466.678 12.0789C470.909 10.8499 475.302 10.2785 479.706 10.3847C483.368 10.3081 487.024 10.7067 490.583 11.5706L482.891 4.94658C481.909 4.94658 480.875 4.8619 479.706 4.8619C474.819 4.76945 469.947 5.42068 465.255 6.79322C456.726 9.11996 447.729 9.11996 439.2 6.79322C429.738 4.21794 419.76 4.21794 410.298 6.79322C401.763 9.11974 392.761 9.11974 384.226 6.79322C374.764 4.21794 364.786 4.21794 355.324 6.79322C346.789 9.11974 337.787 9.11974 329.252 6.79322C319.79 4.21794 309.812 4.21794 300.35 6.79322C291.821 9.11996 282.824 9.11996 274.295 6.79322C264.827 4.21815 254.843 4.21815 245.376 6.79322C236.847 9.11996 227.85 9.11996 219.32 6.79322C209.859 4.21794 199.881 4.21794 190.419 6.79322C181.889 9.11996 172.893 9.11996 164.363 6.79322C154.901 4.21794 144.923 4.21794 135.462 6.79322C126.932 9.11996 117.935 9.11996 109.406 6.79322C104.715 5.42068 99.8422 4.76945 94.9552 4.8619C93.7354 4.8619 92.6343 4.86188 91.567 4.94658L83.8418 11.6214C87.4763 10.7253 91.2126 10.3095 94.9552 10.3847Z" fill="#82B2C2"/>
<path d="M67.4765 28.3762C72.2028 28.4654 76.9152 27.837 81.453 26.5127C90.2922 24.0959 99.6181 24.0959 108.457 26.5127C117.615 28.997 127.269 28.997 136.427 26.5127C145.261 24.0957 154.581 24.0957 163.414 26.5127C172.566 28.9972 182.215 28.9972 191.367 26.5127C200.207 24.0959 209.532 24.0959 218.372 26.5127C227.529 28.997 237.184 28.997 246.342 26.5127C255.181 24.0959 264.507 24.0959 273.346 26.5127C282.498 28.9972 292.147 28.9972 301.299 26.5127C310.138 24.0959 319.464 24.0959 328.303 26.5127C337.461 28.997 347.115 28.997 356.273 26.5127C365.112 24.0959 374.438 24.0959 383.277 26.5127C392.435 28.997 402.089 28.997 411.247 26.5127C420.086 24.0959 429.412 24.0959 438.251 26.5127C447.403 28.9972 457.052 28.9972 466.204 26.5127C475.049 24.0953 484.38 24.0953 493.225 26.5127C497.763 27.837 502.476 28.4654 507.202 28.3762C508.218 28.3762 509.15 28.3762 510.031 28.3762L507.964 26.5974H507.202C502.619 26.6993 498.047 26.0936 493.649 24.8016C484.494 22.2942 474.834 22.2942 465.679 24.8016C456.837 27.1962 447.517 27.1962 438.675 24.8016C429.526 22.294 419.871 22.294 410.722 24.8016C401.847 27.2113 392.491 27.2113 383.616 24.8016C374.467 22.294 364.812 22.294 355.663 24.8016C346.815 27.196 337.49 27.196 328.642 24.8016C319.493 22.294 309.838 22.294 300.689 24.8016C291.847 27.1962 282.527 27.1962 273.685 24.8016C264.536 22.294 254.881 22.294 245.732 24.8016C236.884 27.196 227.558 27.196 218.71 24.8016C209.562 22.294 199.906 22.294 190.758 24.8016C181.915 27.1962 172.595 27.1962 163.753 24.8016C154.604 22.294 144.949 22.294 135.8 24.8016C126.958 27.1962 117.638 27.1962 108.796 24.8016C99.6472 22.294 89.9921 22.294 80.8432 24.8016C76.445 26.0949 71.8734 26.7007 67.2902 26.5974H66.4262L64.3594 28.3762C65.4606 28.3423 66.494 28.3762 67.4765 28.3762Z" fill="#82B2C2"/>
<path d="M67.4764 46.3678C72.3634 46.4603 77.236 45.8091 81.9272 44.4366C90.4566 42.1098 99.4534 42.1098 107.983 44.4366C117.45 47.0116 127.434 47.0116 136.901 44.4366C145.425 42.1096 154.416 42.1096 162.94 44.4366C172.402 47.0118 182.38 47.0118 191.842 44.4366C200.371 42.1098 209.368 42.1098 217.897 44.4366C227.365 47.0116 237.348 47.0116 246.816 44.4366C255.345 42.1098 264.342 42.1098 272.871 44.4366C282.333 47.0118 292.311 47.0118 301.773 44.4366C310.302 42.1098 319.299 42.1098 327.828 44.4366C337.296 47.0116 347.279 47.0116 356.747 44.4366C365.276 42.1098 374.273 42.1098 382.803 44.4366C392.27 47.0116 402.254 47.0116 411.721 44.4366C420.251 42.1098 429.247 42.1098 437.777 44.4366C447.238 47.0118 457.216 47.0118 466.678 44.4366C475.213 42.11 484.216 42.11 492.751 44.4366C502.213 47.0118 512.191 47.0118 521.652 44.4366C523.511 43.9032 525.401 43.4845 527.311 43.1829L522.025 38.6427L520.229 39.117C511.7 41.4437 502.703 41.4437 494.174 39.117C484.706 36.5419 474.723 36.5419 465.255 39.117C456.726 41.4437 447.729 41.4437 439.2 39.117C429.738 36.5417 419.76 36.5417 410.298 39.117C401.763 41.4435 392.761 41.4435 384.226 39.117C374.764 36.5417 364.786 36.5417 355.324 39.117C346.789 41.4435 337.787 41.4435 329.251 39.117C319.79 36.5417 309.812 36.5417 300.35 39.117C291.821 41.4437 282.824 41.4437 274.294 39.117C264.827 36.5419 254.843 36.5419 245.376 39.117C236.846 41.4437 227.85 41.4437 219.32 39.117C209.858 36.5417 199.88 36.5417 190.419 39.117C181.889 41.4437 172.892 41.4437 164.363 39.117C154.901 36.5417 144.923 36.5417 135.461 39.117C126.932 41.4437 117.935 41.4437 109.406 39.117C99.944 36.5417 89.9659 36.5417 80.5042 39.117C71.9748 41.4437 62.978 41.4437 54.4487 39.117C53.8388 38.9476 53.2289 38.7782 52.5851 38.6257L47.3164 43.1829C49.2434 43.483 51.1501 43.9017 53.0256 44.4366C57.717 45.8078 62.5895 46.459 67.4764 46.3678Z" fill="#82B2C2"/>
<path d="M53.4998 58.8199C62.6518 61.3044 72.3007 61.3044 81.4528 58.8199C90.292 56.4031 99.6178 56.4031 108.457 58.8199C117.615 61.3042 127.269 61.3042 136.427 58.8199C145.26 56.4029 154.581 56.4029 163.414 58.8199C172.566 61.3044 182.215 61.3044 191.367 58.8199C200.206 56.4031 209.532 56.4031 218.371 58.8199C227.529 61.3042 237.183 61.3042 246.341 58.8199C255.18 56.4031 264.506 56.4031 273.346 58.8199C282.498 61.3044 292.146 61.3044 301.298 58.8199C310.138 56.4031 319.464 56.4031 328.303 58.8199C337.461 61.3042 347.115 61.3042 356.273 58.8199C365.112 56.4031 374.438 56.4031 383.277 58.8199C392.435 61.3042 402.089 61.3042 411.247 58.8199C420.086 56.4031 429.412 56.4031 438.251 58.8199C447.403 61.3044 457.052 61.3044 466.204 58.8199C475.049 56.4025 484.38 56.4025 493.225 58.8199C502.377 61.3044 512.026 61.3044 521.178 58.8199C525.575 57.5211 530.147 56.9096 534.731 57.0071C537.977 56.9616 541.218 57.2512 544.404 57.8712L541.728 55.5841C539.407 55.2947 537.07 55.1589 534.731 55.1775C529.999 55.09 525.281 55.7183 520.738 57.041C511.898 59.4578 502.572 59.4578 493.733 57.041C484.576 54.5567 474.921 54.5567 465.763 57.041C456.924 59.4578 447.598 59.4578 438.759 57.041C429.607 54.5565 419.958 54.5565 410.806 57.041C401.935 59.4738 392.572 59.4738 383.7 57.041C374.548 54.5565 364.899 54.5565 355.747 57.041C346.903 59.4584 337.571 59.4584 328.726 57.041C319.574 54.5565 309.925 54.5565 300.773 57.041C291.934 59.4578 282.608 59.4578 273.769 57.041C264.617 54.5565 254.968 54.5565 245.816 57.041C236.971 59.4584 227.64 59.4584 218.795 57.041C209.643 54.5565 199.994 54.5565 190.842 57.041C182.003 59.4578 172.677 59.4578 163.838 57.041C154.686 54.5565 145.037 54.5565 135.885 57.041C127.046 59.4578 117.72 59.4578 108.881 57.041C99.7285 54.5565 90.0796 54.5565 80.9276 57.041C72.0884 59.4578 62.7625 59.4578 53.9233 57.041C49.3853 55.7179 44.6731 55.0897 39.9469 55.1775C37.5913 55.158 35.2371 55.2938 32.8994 55.5841L30.2227 57.8881C33.4236 57.2502 36.6834 56.9549 39.9469 57.0071C44.531 56.9091 49.1026 57.5206 53.4998 58.8199Z" fill="#F2E8DD"/>
<path d="M562.122 73.169C557.735 73.2733 553.359 72.7019 549.145 71.4749C539.678 68.8998 529.694 68.8998 520.227 71.4749C511.698 73.8017 502.701 73.8017 494.171 71.4749C484.704 68.8998 474.72 68.8998 465.253 71.4749C456.723 73.8017 447.727 73.8017 439.197 71.4749C429.735 68.8996 419.757 68.8996 410.296 71.4749C401.76 73.8014 392.758 73.8014 384.223 71.4749C374.761 68.8996 364.783 68.8996 355.321 71.4749C346.786 73.8014 337.784 73.8014 329.249 71.4749C319.787 68.8996 309.809 68.8996 300.347 71.4749C291.818 73.8017 282.821 73.8017 274.292 71.4749C264.824 68.8998 254.841 68.8998 245.373 71.4749C236.844 73.8017 227.847 73.8017 219.318 71.4749C209.856 68.8996 199.878 68.8996 190.416 71.4749C181.887 73.8017 172.89 73.8017 164.36 71.4749C154.899 68.8996 144.921 68.8996 135.459 71.4749C126.929 73.8017 117.933 73.8017 109.403 71.4749C99.9415 68.8996 89.9634 68.8996 80.5016 71.4749C71.9723 73.8017 62.9755 73.8017 54.4461 71.4749C44.9844 68.8996 35.0062 68.8996 25.5444 71.4749C21.3372 72.7023 16.9658 73.2737 12.5844 73.169L6.51953 78.4039C8.51253 78.5999 10.5141 78.696 12.5167 78.6918C17.4036 78.783 22.2761 78.1318 26.9675 76.7606C35.4969 74.4338 44.4937 74.4338 53.023 76.7606C62.4848 79.3358 72.4629 79.3358 81.9247 76.7606C90.454 74.4338 99.4509 74.4338 107.98 76.7606C117.448 79.3356 127.431 79.3356 136.899 76.7606C145.422 74.4336 154.414 74.4336 162.937 76.7606C172.399 79.3358 182.377 79.3358 191.839 76.7606C200.368 74.4338 209.365 74.4338 217.895 76.7606C227.362 79.3356 237.346 79.3356 246.813 76.7606C255.343 74.4338 264.339 74.4338 272.869 76.7606C282.331 79.3358 292.309 79.3358 301.77 76.7606C310.3 74.4338 319.297 74.4338 327.826 76.7606C337.293 79.3356 347.277 79.3356 356.744 76.7606C365.274 74.4338 374.271 74.4338 382.8 76.7606C392.268 79.3356 402.251 79.3356 411.719 76.7606C420.248 74.4338 429.245 74.4338 437.774 76.7606C447.236 79.3358 457.214 79.3358 466.676 76.7606C475.211 74.434 484.213 74.434 492.748 76.7606C502.21 79.3358 512.188 79.3358 521.65 76.7606C530.185 74.434 539.187 74.434 547.722 76.7606C552.42 78.1315 557.298 78.7826 562.19 78.6918C564.193 78.696 566.194 78.5999 568.187 78.4039L562.122 73.169Z" fill="#F2E8DD"/>
</g>
<defs>
<clipPath id="clip0_4412_106">
<rect width="583" height="87" fill="white"/>
</clipPath>
</defs>
</svg>
