<svg width="119" height="31" viewBox="0 0 119 31" fill="none" xmlns="http://www.w3.org/2000/svg">
<path d="M89.77 26.5752V11.9721H94.4079V13.314C94.7668 12.7351 96.0643 11.5774 98.3833 11.5774C100.702 11.5774 102.055 12.8404 102.441 13.4719C103.684 11.7353 105.782 11.5511 106.997 11.5774C111.386 11.5774 112.711 15.3663 112.711 17.4976V26.5752H108.073V17.7344C108.073 17.1818 107.775 15.6031 105.92 15.6031C104.065 15.6031 103.518 17.1818 103.518 18.0501V26.5752H98.8802V17.7344C98.8802 16.7082 98.433 15.6031 96.6441 15.6031C94.8552 15.6031 94.4079 17.1818 94.4079 18.0501V26.5752H89.77Z" fill="#076787"/>
<path d="M15.6523 15.0655V8.04565H0.652344V22.1633H8.19332V15.0655H15.6523Z" fill="#076787"/>
<rect x="7.71191" y="22.1633" width="7.94117" height="7.94117" fill="#076787"/>
<rect x="22.7119" y="22.1633" width="7.94117" height="7.94117" fill="#076787"/>
<path fill-rule="evenodd" clip-rule="evenodd" d="M15.6523 0.104492H30.5704V7.64547H15.6523V0.104492ZM37.9471 15.0227H37.9476V22.5637H30.5705V15.1869H23.0291V7.64593H37.9471V15.0227Z" fill="#076787"/>
<path d="M50.4657 13.5561L46.6484 5.39868H41.2407L48.1594 18.4177V26.5751H52.8514V18.4177L59.7701 5.39868H54.3624L50.4657 13.5561Z" fill="#076787"/>
<path d="M73.0054 19.5164C73.0054 23.9022 69.45 27.4575 65.0642 27.4575C60.6784 27.4575 57.123 23.9022 57.123 19.5164C57.123 15.1306 60.6784 11.5752 65.0642 11.5752C69.45 11.5752 73.0054 15.1306 73.0054 19.5164ZM61.525 19.5164C61.525 21.471 63.1096 23.0556 65.0642 23.0556C67.0189 23.0556 68.4676 21.471 68.4676 19.5164C68.4676 17.5617 67.0189 15.9772 65.0642 15.9772C63.1096 15.9772 61.525 17.5617 61.525 19.5164Z" fill="#076787"/>
<path d="M88.8877 19.5164C88.8877 23.9022 85.3323 27.4575 80.9465 27.4575C76.5608 27.4575 73.0054 23.9022 73.0054 19.5164C73.0054 15.1306 76.5608 11.5752 80.9465 11.5752C85.3323 11.5752 88.8877 15.1306 88.8877 19.5164ZM77.4073 19.5164C77.4073 21.471 78.9919 23.0556 80.9465 23.0556C82.9012 23.0556 84.3499 21.471 84.3499 19.5164C84.3499 17.5617 82.9012 15.9772 80.9465 15.9772C78.9919 15.9772 77.4073 17.5617 77.4073 19.5164Z" fill="#076787"/>
<rect x="113.594" y="11.5752" width="5.29411" height="15" fill="#076787"/>
<ellipse cx="116.241" cy="8.04574" rx="2.64706" ry="2.64706" fill="#076787"/>
</svg>
