<svg width="97" height="48" viewBox="0 0 97 48" fill="none" xmlns="http://www.w3.org/2000/svg">
<path d="M41.7514 0.842464H28.251V2.50405H29.4972C30.8264 2.50405 31.8511 4.02718 32.1973 4.78874L44.4515 41.3437L55.6672 11.4351L67.7137 41.3437L80.1756 4.78874C80.1756 4.02718 80.7572 2.50405 83.0834 2.50405C85.4097 2.50405 86.2681 4.02718 86.4066 4.78874V34.0743C86.4066 41.2191 82.2526 45.9131 80.1756 47.367H83.0834C84.3298 47.367 93.053 39.6821 93.053 31.3742V4.78874C93.053 2.79483 94.1607 2.43482 94.7146 2.50405H96.9992V0.634766H73.1139V2.50405H74.9832C76.4786 2.50405 76.2986 4.02718 76.0217 4.78874L68.7522 29.0895L57.1211 0.842464L46.1131 29.0895L39.259 4.78874C38.7605 2.79483 39.7436 2.43482 40.2975 2.50405H41.7514V0.842464Z" fill="#076787"/>
<path d="M16.8284 1.05029H0.62793V2.50418H3.12031C4.44958 2.50418 4.92037 3.61191 4.9896 4.16577V34.9052C4.9896 37.0652 3.88188 37.4668 3.32801 37.3976H1.45872V38.8515H16.2053V37.3976H14.1283C12.1344 37.3976 11.636 35.736 11.636 34.9052V23.2741H16.6207C18.49 25.9741 22.7686 32.0805 24.9287 34.9052C27.0887 37.7299 30.1211 38.713 31.3673 38.8515H38.8445V37.3976C34.8567 37.3976 32.4751 35.1821 31.7827 34.0744L20.9824 21.4048C32.1981 10.189 25.3441 1.05029 16.8284 1.05029Z" fill="#076787"/>
<path d="M20.9828 8.94141C20.1521 4.62128 14.9596 3.12707 11.4287 3.95664V20.1574C12.7441 20.5728 16.1227 20.7816 18.2828 19.9508C20.9828 18.9123 22.0213 14.3416 20.9828 8.94141Z" fill="white"/>
</svg>
