<svg width="193" height="49" viewBox="0 0 193 49" fill="none" xmlns="http://www.w3.org/2000/svg">
<path d="M145.193 43.1309V19.4027H152.729V21.5831C153.313 20.6426 155.421 18.7614 159.189 18.7614C162.957 18.7614 165.155 20.8136 165.783 21.8397C167.802 19.0179 171.211 18.7187 173.184 18.7614C180.317 18.7614 182.47 24.9179 182.47 28.381V43.1309H174.934V28.7657C174.934 27.8679 174.449 25.3027 171.435 25.3027C168.421 25.3027 167.532 27.8679 167.532 29.2788V43.1309H159.996V28.7657C159.996 27.0984 159.27 25.3027 156.363 25.3027C153.456 25.3027 152.729 27.8679 152.729 29.2788V43.1309H145.193Z" fill="white"/>
<path d="M24.7618 24.4278V13.0215H0.388672V35.9609H12.6418V24.4278H24.7618Z" fill="white"/>
<rect x="11.8594" y="35.9629" width="12.9034" height="12.9034" fill="white"/>
<rect x="36.2324" y="35.9629" width="12.9034" height="12.9034" fill="white"/>
<path fill-rule="evenodd" clip-rule="evenodd" d="M24.7617 0.119141H49.0017V12.3723H24.7617V0.119141ZM60.988 24.3594H60.9887V36.6125H49.002V24.6262H36.748V12.373H60.988V24.3594Z" fill="white"/>
<path d="M81.3292 21.9756L75.1267 8.7207H66.3398L77.5819 29.875V43.1298H85.2058V29.875L96.4478 8.7207H87.661L81.3292 21.9756Z" fill="white"/>
<path d="M117.953 31.6612C117.953 38.7876 112.176 44.5647 105.05 44.5647C97.9235 44.5647 92.1465 38.7876 92.1465 31.6612C92.1465 24.5349 97.9235 18.7578 105.05 18.7578C112.176 18.7578 117.953 24.5349 117.953 31.6612ZM99.2991 31.6612C99.2991 34.8373 101.874 37.412 105.05 37.412C108.226 37.412 110.58 34.8373 110.58 31.6612C110.58 28.4852 108.226 25.9105 105.05 25.9105C101.874 25.9105 99.2991 28.4852 99.2991 31.6612Z" fill="white"/>
<path d="M143.76 31.6612C143.76 38.7876 137.983 44.5647 130.857 44.5647C123.73 44.5647 117.953 38.7876 117.953 31.6612C117.953 24.5349 123.73 18.7578 130.857 18.7578C137.983 18.7578 143.76 24.5349 143.76 31.6612ZM125.106 31.6612C125.106 34.8373 127.68 37.412 130.857 37.412C134.033 37.412 136.387 34.8373 136.387 31.6612C136.387 28.4852 134.033 25.9105 130.857 25.9105C127.68 25.9105 125.106 28.4852 125.106 31.6612Z" fill="white"/>
<rect x="183.904" y="18.7578" width="8.60228" height="24.3731" fill="white"/>
<circle cx="188.205" cy="13.0218" r="4.30114" fill="white"/>
</svg>
